<svg xmlns="http://www.w3.org/2000/svg" width="2400" height="1400" viewBox="0 0 2400 1400">
  <defs>
    <style>
      .bg { fill: #ffffff; }
      .line { fill: none; stroke: #000000; stroke-width: 4; }
      .thin { fill: none; stroke: #000000; stroke-width: 2.5; }
      .box { fill: #ffffff; stroke: #000000; stroke-width: 4; }
      .title { font-family: Arial, Helvetica, sans-serif; font-size: 42px; font-weight: 700; fill: #000000; }
      .ref { font-family: Arial, Helvetica, sans-serif; font-size: 26px; font-weight: 700; fill: #000000; }
      .label { font-family: Arial, Helvetica, sans-serif; font-size: 30px; fill: #000000; }
      .pin { font-family: Arial, Helvetica, sans-serif; font-size: 24px; fill: #000000; }
      .net { font-family: Arial, Helvetica, sans-serif; font-size: 28px; font-weight: 700; fill: #000000; }
    </style>
  </defs>

  <rect class="bg" x="0" y="0" width="2400" height="1400"/>
  <text class="title" x="70" y="70">ESP32-CAM Standalone Schematic</text>

  <!-- 5V input -->
  <rect class="box" x="100" y="200" width="360" height="150"/>
  <text class="ref" x="130" y="245">J1</text>
  <text class="label" x="130" y="300">5V POWER INPUT</text>
  <text class="pin" x="130" y="335">1  +5V</text>
  <text class="pin" x="130" y="365">2  GND</text>

  <!-- USB UART -->
  <rect class="box" x="100" y="760" width="420" height="230"/>
  <text class="ref" x="130" y="805">J2</text>
  <text class="label" x="130" y="860">USB-UART ADAPTER</text>
  <text class="pin" x="130" y="900">1  TXD   (3.3V logic)</text>
  <text class="pin" x="130" y="935">2  RXD   (3.3V logic)</text>
  <text class="pin" x="130" y="970">3  GND</text>

  <!-- ESP32-CAM -->
  <rect class="box" x="1180" y="180" width="600" height="760"/>
  <text class="ref" x="1215" y="225">U1</text>
  <text class="label" x="1215" y="285">AI-THINKER ESP32-CAM</text>

  <text class="pin" x="1240" y="390">5V</text>
  <text class="pin" x="1240" y="470">GND</text>
  <text class="pin" x="1240" y="550">U0R / RX0</text>
  <text class="pin" x="1240" y="630">U0T / TX0</text>
  <text class="pin" x="1240" y="710">GPIO0</text>
  <text class="pin" x="1240" y="790">EN</text>

  <!-- power rails -->
  <line class="line" x1="460" y1="265" x2="1030" y2="265"/>
  <line class="line" x1="1030" y1="265" x2="1030" y2="390"/>
  <line class="line" x1="1030" y1="390" x2="1180" y2="390"/>
  <text class="net" x="520" y="250">+5V</text>

  <line class="line" x1="460" y1="335" x2="980" y2="335"/>
  <line class="line" x1="980" y1="335" x2="980" y2="470"/>
  <line class="line" x1="980" y1="470" x2="1180" y2="470"/>
  <text class="net" x="520" y="320">GND</text>

  <!-- bulk cap -->
  <text class="ref" x="630" y="510">C1</text>
  <line class="thin" x1="680" y1="430" x2="680" y2="550"/>
  <line class="thin" x1="710" y1="430" x2="710" y2="550"/>
  <line class="line" x1="680" y1="430" x2="680" y2="265"/>
  <line class="line" x1="710" y1="550" x2="710" y2="610"/>
  <line class="line" x1="685" y1="610" x2="735" y2="610"/>
  <line class="line" x1="692" y1="623" x2="728" y2="623"/>
  <line class="line" x1="699" y1="636" x2="721" y2="636"/>
  <text class="label" x="760" y="505">470uF</text>

  <!-- UART -->
  <line class="line" x1="520" y1="885" x2="1080" y2="885"/>
  <line class="line" x1="1080" y1="885" x2="1080" y2="550"/>
  <line class="line" x1="1080" y1="550" x2="1180" y2="550"/>

  <line class="line" x1="520" y1="920" x2="1130" y2="920"/>
  <line class="line" x1="1130" y1="920" x2="1130" y2="630"/>
  <line class="line" x1="1130" y1="630" x2="1180" y2="630"/>

  <line class="line" x1="520" y1="955" x2="930" y2="955"/>
  <line class="line" x1="930" y1="955" x2="930" y2="470"/>
  <line class="line" x1="930" y1="470" x2="980" y2="470"/>

  <!-- boot jumper -->
  <rect class="box" x="1870" y="660" width="220" height="90"/>
  <text class="ref" x="1900" y="700">JP1</text>
  <text class="label" x="1900" y="732">BOOT</text>
  <line class="line" x1="1780" y1="710" x2="1870" y2="710"/>
  <line class="line" x1="2090" y1="710" x2="2200" y2="710"/>
  <line class="line" x1="2200" y1="710" x2="2200" y2="840"/>
  <line class="line" x1="2175" y1="840" x2="2225" y2="840"/>
  <line class="line" x1="2182" y1="853" x2="2218" y2="853"/>
  <line class="line" x1="2189" y1="866" x2="2211" y2="866"/>

  <!-- reset switch -->
  <rect class="box" x="1870" y="780" width="220" height="90"/>
  <text class="ref" x="1900" y="820">SW1</text>
  <text class="label" x="1900" y="852">RESET</text>
  <line class="line" x1="1780" y1="790" x2="1870" y2="790"/>
  <line class="line" x1="2090" y1="825" x2="2260" y2="825"/>
  <line class="line" x1="2260" y1="825" x2="2260" y2="980"/>
  <line class="line" x1="2235" y1="980" x2="2285" y2="980"/>
  <line class="line" x1="2242" y1="993" x2="2278" y2="993"/>
  <line class="line" x1="2249" y1="1006" x2="2271" y2="1006"/>
</svg>
